<svg xmlns="http://www.w3.org/2000/svg" xmlns:xlink="http://www.w3.org/1999/xlink" xmlns:serif="http://www.serif.com/" viewBox="0 0 408 34" style="fill-rule:evenodd;clip-rule:evenodd;"><rect id="Artboard1" x="0" y="0" width="408" height="34" style="fill:none;"></rect><g id="icon-mistercash"><path d="M384.12 3.252h18.048c2.578.0 2.947 1.842 2.947 2.947V25.35c0 1.105-.737 2.946-2.947 2.946h-36.096c-2.21.0-2.947-1.84-2.947-2.946V6.2c0-1.106.737-2.948 2.947-2.948h18.048z" style="fill:#fff;fill-rule:nonzero;stroke:#0079be;stroke-width:0.25px;"></path><path d="M375.648 17.985h6.63l3.683-4.052h6.63l-5.524 6.262h-20.994v-4.052h11.05" style="fill:#0079be;fill-rule:nonzero;"></path><path d="M392.59 13.933h-6.63l-3.682 4.052h-6.63l5.525-6.26h20.995v4.418H390.75" style="fill:#ffe237;fill-rule:nonzero;"></path><path d="M399.22 10.25c-.367.37-.735.37-1.104.37-1.105.0-1.84-.738-1.84-1.843s.735-1.842 1.84-1.842c.37.0.737.0 1.105.37v1.104c-.367-.37-.735-.37-1.104-.37-.368.0-.736.37-.736.737.0.368.368.737.736.737.37.0.737.0 1.105-.37v1.106l-.002.001zm2.948-.736v.736c-1.105.737-2.21.0-2.21-.736V8.04h-.368V6.935h.368V5.83l1.473-.736v1.473h.738v1.105h-.737v1.473c0 .37.37.37.738.37l-.002-.001zM392.59 8.04l.37-1.105c1.473-.368 3.315-.368 3.315 1.105v2.58H394.8c-.735.0-2.577.0-2.21-1.475.0-1.105 1.106-1.105 1.843-1.105.368.0.368-.368.0-.368s-1.105.0-1.842.368h-.001zm-22.1.0.37-1.105c1.473-.368 3.315-.368 3.315 1.105v2.58H372.7c-.367.0-2.577.0-2.21-1.475.0-1.105 1.106-1.105 1.843-1.105.368.0.368-.368.0-.368s-1.105.0-1.842.368h-.001zm15.103.737c0 1.105-.737 1.842-1.842 1.842-1.104.0-1.84-.738-1.84-1.843s.736-2.21 1.84-2.21c1.106.0 1.843 1.105 1.843 2.21l-.001.001zm6.63.737v.736c-1.105.737-2.21.0-2.21-.736V8.04h-.368V6.935h.368V5.83l1.473-.736v1.473h.737v1.105h-.737v1.473c0 .37.37.37.737.37v-.001zm-23.573-4.42c1.105.0 2.21 1.473 1.105 2.578 1.473.737.736 2.947-.737 2.947h-2.946V5.093h2.578v.001zm12.523 5.156s-.368.37-.737.37c-1.105.0-1.84-.738-1.84-1.843s.735-2.21 1.472-2.21c.368.0.737.0 1.105.368V8.04s-.368-.368-.737-.368c-.368.0-.736.368-.736 1.105.0.368.368.737.736.737.37.0.737.0 1.105-.37l-.367 1.106h-.001zm-2.947-2.21v2.21h-1.473V8.41c0-.738-1.105-.738-1.105.0v2.21h-1.105V6.934h1.473v.37c.737-1.106 2.21-.37 2.21.735v.001zm11.42.0v2.21h-1.475V8.41c0-.738-1.104-.738-1.104.0v2.21h-1.105V6.934h1.475v.37c.736-1.106 2.21-.37 2.21.735l-.001.001z" style="fill:#0079be;fill-rule:nonzero;"></path><path d="M394.433 7.672c.368.0.368.368.0.0-.737.368-1.842.737-1.842 1.473-.367 1.474 1.843 1.474 2.21 1.105h1.106V8.04c0-1.105-1.84-1.473-3.315-1.105V8.04c.738-.368 1.475-.368 1.843-.368h-.002zm-22.1.0c.368.0.368.368.0.0-.737.368-1.842.737-1.842 1.473-.367 1.474 1.843 1.474 2.21 1.105h1.106V8.04c0-1.105-1.84-1.473-3.315-1.105l.37 1.105c.368-.368 1.105-.368 1.473-.368h-.002zm11.418-1.105c-1.104.0-1.84.737-1.84 1.842.0 1.104.736 2.21 1.84 2.21 1.106.0 1.843-.738 1.843-1.843s-.737-2.21-1.842-2.21l-.001.001zm7.736 2.578V7.672h.737v-.737h-.737v-1.84l-1.105.735v.737h-.735v1.105h.368v1.473c0 .737 1.105 1.474 2.21.737v-.368c-.368.0-.737.0-.737-.37l-.001.001z" style="fill:#0079be;fill-rule:nonzero;"></path><path d="M366.072 5.094v5.525h2.578c1.473.0 2.21-1.843.736-2.948 1.105-1.105.37-2.578-1.105-2.578h-2.208l-.001.001zm15.1 4.05h-.736c-.368.0-.736.0-.736-.735.0-.37.368-.738.736-.738.37.0.737.0 1.105.368V6.935c-.367-.368-1.104-.368-1.472-.368-1.105.0-1.842.737-1.842 1.842.0 1.104 1.105 1.84 1.842 1.84.368.0.737.0 1.105-.368v-.737h-.002z" style="fill:#0079be;fill-rule:nonzero;"></path><path d="M375.648 7.304l-1.473-.37v3.685h1.473V8.41c0-.738 1.105-.738 1.105.0v2.21h1.473V8.04c0-1.105-1.473-1.84-2.578-.736zm11.418.0-1.105-.37v3.685h1.475V8.41c0-.738 1.105-.738 1.105.0v2.21h1.473V8.04c-.368-1.105-1.842-1.84-2.947-.736h-.001zm12.155 1.84c-.367.37-.367.37-1.104.37-.368.0-.736-.37-.736-.737.0-.368.368-.737.736-.737.37.0.737.0 1.105.37V6.934c0-.368-.735-.368-1.104-.368-1.105.0-1.84.737-1.84 1.842.0 1.104 1.104 2.21 2.21 2.21.367.0.735.0 1.104-.37l-.37-1.105-.001.001zm2.21.0V7.673h.738v-.737h-.737v-1.84l-1.472.735v.737h-.368v1.105h.368v1.473c0 .737 1.105 1.474 2.21.737v-.368c-.368.0-.737.0-.737-.37l-.002-.001zm-16.942-.367c0 .368-.368.737-.737.737-.367.0-.735-.37-.735-.737.0-.368.368-.737.736-.737.37.0.738.0.738.737h-.002zm-16.943-.368h.736c.738.0.738 1.104.0 1.104h-.735V8.41l-.001-.001zm5.156.367v.368c0 .737-1.104.737-1.104.37.0-.738.737-.738 1.105-.738h-.001zm22.1.0v.368c0 .737-1.104.737-1.104.37.0-.738.737-.738 1.105-.738h-.001zM368.28 6.2c.738.367.37 1.104.0 1.104h-.735V6.2h.736-.001z" style="fill:#0079be;fill-rule:nonzero;"></path><path d="M383.75 8.04c-.367.0-.735.37-.735.737.0.368.368.737.736.737.37.0.738-.37.738-.737.0-.737-.368-.737-.737-.737h-.002zm9.946 1.474c0 .368 1.105.368 1.105-.37v-.367c-.367.0-1.104.0-1.104.737h-.001zM367.546 6.2v1.104h.735c.37-.37.738-1.105.0-1.105h-.735V6.2zm4.05 3.314c0 .368 1.105.368 1.105-.37v-.367c-.367.0-1.104.0-1.104.737h-.001zm-4.05.0h.735c.738.0.738-1.105.0-1.105h-.735v1.105z" style="fill:#fff;fill-rule:nonzero;"></path><path d="M382.278 25.352c0-1.105-.368-2.21-1.842-2.21-1.105.0-1.84.736-1.84 1.84.0 1.106.735 1.843 2.21 1.843 1.104.0 1.472-.368 1.472-.368v-1.105c-.368.368-1.105.368-1.473.368-.737.0-1.105.0-1.105-.737l2.578.37v-.001zm-13.628.0 1.105-1.474v2.947h1.473v-5.157h-1.473l-1.105 1.474-1.105-1.474h-1.473v5.157h1.473v-2.947l1.105 1.474zm15.1-.37c0-.367.37-.367.738-.367s.368.0.737.368V23.51l-.37-.368c-.367.0-.735.368-1.104.368v-.368h-1.104v3.683h1.105v-1.842l-.002-.001zm-10.68 1.843c.368.368 1.105.368 1.473.368 1.473.0 1.842-.736 1.842-1.473-.37-.737-.737-1.105-1.474-1.105.0.0-.367.0-.367-.368.0-.37.0-.37.368-.37.37.0.738.0 1.106.37v-1.105c-.368.0-.736-.37-1.105-.37-.735.0-1.472.37-1.472 1.106.0.737.368.737 1.105 1.105.368.0.368.0.368.37.0.367-.367.367-.367.367s-.737.0-1.473-.368v1.473h-.004z" style="fill:#0079be;fill-rule:nonzero;"></path><path d="M377.858 25.72v-1.473h.737v-1.105h-.737v-1.474l-1.473.737v.737h-.37v1.105h.37v1.84c0 .738 1.105 1.475 2.21.738V25.72c-.37.368-.737.368-.737.0zm-5.157 1.105v-3.683h-1.104v3.683h1.105-.001zm-.367-3.683c.368.0.737-.37.737-.737.0-.368-.37-.737-.737-.737-.368.0-.737.37-.737.737.0.368.0.737.737.737zm22.837 3.683c.368.368 1.105.368 1.473.368 1.473.0 1.842-.736 1.842-1.473-.37-.737-1.105-1.105-1.474-1.105.0.0-.367.0-.367-.368.0-.37.0-.37.368-.37.37.0.738.0 1.106.37v-1.105c-.368.0-.736-.37-1.105-.37-.735.0-1.472.37-1.472 1.106.0.737.368.737 1.105 1.105.368.0.368.0.368.37.0.367-.367.367-.367.367s-.737.0-1.473-.368v1.473h-.004zm-4.052-1.473c-.368.368-.737.368-1.473.368-.737.0-1.842-.737-1.842-1.473.0-.737.368-1.474 1.842-1.474.368.0 1.105.0 1.473.37v-1.106c-.368-.37-1.105-.37-1.842-.37-1.473.0-2.946 1.106-2.946 2.58.0 1.473 1.473 2.578 2.946 2.578.37.0 1.105.0 1.474-.368l.368-1.105zm2.21-1.105c.368.0.368.368.0.0-.737.368-1.842.368-2.21 1.473.0 1.473 1.842 1.473 2.578 1.105h1.105v-2.578c0-1.105-1.84-1.474-3.314-1.105v1.105c.737.0 1.474-.37 1.842.0h-.001zm6.262-.737v-1.842h-1.105v5.157h1.473v-1.842c0-.736 1.105-.736 1.105.0v2.21h1.105v-2.578c0-1.105-1.473-1.842-2.578-1.105z" style="fill:#0079be;fill-rule:nonzero;"></path><path d="M379.7 24.615c.368-.368.368-.737.736-.737.37.0.737.0.737.37H379.7v.367zm13.996.737v.368c0 .368-1.105.737-1.105.0.0-.368.738-.368 1.106-.368h-.001z" style="fill:#fff;fill-rule:nonzero;"></path></g><g id="icon-ideal"><path d="M303.5 18.3h4.4v7.3h-4.4v-7.3zm4.7-3.6c0 1.4-1.1 2.5-2.5 2.5s-2.5-1.1-2.5-2.5c0-1.4 1.1-2.5 2.5-2.5s2.5 1.1 2.5 2.5z" style="fill:#010101;fill-rule:nonzero;"></path><path d="M316.3 4.8h-15.9v24.1h15.9c3.5-.1 6.2-.9 8.2-2.6 2.4-2 3.6-5.2 3.6-9.5.0-2-.3-3.9-.9-5.4-.6-1.5-1.5-2.8-2.6-3.8-2.2-1.8-5-2.8-8.3-2.8zm-.3 1.6c3.1.0 5.6.8 7.4 2.4 2 1.8 3 4.5 3 8 0 7-3.4 10.4-10.4 10.4h-14V6.3c1.4.1 13.4.1 14 .1z" style="fill:#010101;fill-rule:nonzero;"></path><path d="M315.5 25.7h-5.6V8.3h5.6-.2c4.7.0 9.7 1.9 9.7 8.7.0 7.2-5 8.6-9.7 8.6h.2v.1z" style="fill:#cc1b69;fill-rule:nonzero;"></path><path d="M309 12.8h1.5c.4.0.6.0.8.1s.5.2.6.4c.2.2.3.4.4.7.1.3.1.6.1 1 0 .3.0.6-.1.9-.1.3-.3.6-.4.7-.2.1-.3.3-.6.3-.2.1-.4.1-.7.1H309v-4.2zm.8.7v2.8h1.1c.1.0.3-.1.3-.2.0-.1.2-.2.2-.4.0-.2.1-.4.1-.8.0-.3.0-.6-.1-.7-.1-.2-.1-.3-.2-.4-.1-.1-.2-.2-.4-.2h-.7l-.3-.1z" style="fill:#fff;fill-rule:nonzero;"></path><path d="M308.8 12.7v4.4h1.7c.3.0.6.0.8-.1.3-.1.5-.2.6-.4.2-.2.4-.5.5-.8s.1-.6.1-.9c0-.4-.1-.7-.1-1-.1-.3-.2-.5-.4-.7s-.4-.3-.7-.4c-.2-.1-.5-.1-.8-.1h-1.7zm1.7.2c.3.0.6.0.8.1s.4.2.6.4c.2.2.3.4.4.6.1.3.1.6.1.9s0 .6-.1.9c-.1.3-.2.5-.4.7-.1.1-.3.2-.5.3s-.4.1-.7.1h-1.5V13c.1-.1 1.3-.1 1.3-.1z" style="fill:#fff;fill-rule:nonzero;"></path><path d="M309.7 13.4v3h1.2c.2.0.3-.1.4-.2.1-.1.2-.2.3-.5.1-.2.1-.5.1-.8s0-.6-.1-.8c-.1-.2-.2-.3-.3-.5-.1-.1-.3-.2-.4-.2h-1.2zm.5.2h.7c.1.0.3.1.3.2s.2.2.2.4c.1.2.1.4.1.7.0.3.0.6-.1.7-.1.2-.1.3-.2.4-.1.1-.2.1-.3.2h-1v-2.5c.1-.1.3-.1.3-.1zm3.2 3.4v-4.2h3.1v.7h-2.3v.9h2.1v.7h-2.1v1.1h2.3v.8h-3.1z" style="fill:#fff;fill-rule:nonzero;"></path><path d="M313.3 12.7v4.4h3.4v-.9h-2.3v-.9h2.1v-.9h-2.1v-.7h2.3v-.9l-3.4-.1zm3.1.2v.5h-2.3v1.1h2.1v.5h-2.1v1.4h2.3v.5h-2.9V13c.2-.1 2.7-.1 2.9-.1zm4.9 4.1h-.9l-.4-1h-1.7l-.3 1h-.9l1.6-4.2h.9l1.7 4.2zm-1.6-1.7-.6-1.5-.6 1.5h1.2z" style="fill:#fff;fill-rule:nonzero;"></path><path d="M318.6 12.7l-1.7 4.4h1.1s.3-.8.3-.9h1.5c.1.1.4.9.4.9h1.2l-1.8-4.4h-1zm.9.2c.1.1 1.5 3.7 1.6 3.9h-.7c-.1-.1-.4-.9-.4-.9h-1.8s-.3.8-.3.9h-.6c.1-.3 1.5-3.8 1.5-3.9h.7z" style="fill:#fff;fill-rule:nonzero;"></path><path d="M318.4 15.4h1.5l-.7-2-.8 2zm.8-1.3c.1.3.3.9.4 1.1h-.8c0-.2.2-.8.4-1.1zM322 17v-4.1h.8v3.4h2.1v.7H322" style="fill:#fff;fill-rule:nonzero;"></path><path d="M321.9 12.7v4.4h3.2v-.9H323v-3.4h-1.1v-.1zm.8.2v3.4h2.1v.5h-2.7v-3.9h.6z" style="fill:#fff;fill-rule:nonzero;"></path></g><g id="icon-paypal"><path d="M206.6 11.5h4.4c2.4.0 3.3 1.2 3.1 3-.2 2.9-2 4.5-4.3 4.5h-1.2c-.3.0-.5.2-.6.8l-.5 3.3c0 .2-.2.3-.3.4h-2.8c-.3.0-.4-.2-.3-.6l1.7-10.7c.1-.5.3-.7.8-.7" style="fill:#00aeef;fill-rule:nonzero;"></path><path d="M225.7 11.3c1.5.0 2.9.8 2.7 2.8-.2 2.4-1.5 3.7-3.5 3.7h-1.7c-.3.0-.4.2-.4.6l-.3 2.2c-.1.3-.2.5-.5.5h-1.6c-.3.0-.4-.2-.3-.5l1.4-8.7c.1-.4.2-.6.5-.6h3.7zm-2.7 4.6h1.3c.8.0 1.4-.6 1.4-1.6.0-.6-.4-1.1-1.1-1.1h-1.3l-.3 2.7zm9.8 4.5c.2-.1.3-.2.3.0l-.1.4c0 .2.1.3.3.3h1.5c.2.0.4-.1.4-.5l.9-5.6c0-.3.0-.4-.2-.4h-1.6c-.1.0-.2.1-.3.3l-.1.4c0 .2-.1.2-.2.0-.3-.6-1-.9-1.9-.9-2.3.1-3.8 1.7-3.9 3.9-.1 1.7 1.1 3 2.7 3 1.1.0 1.6-.3 2.2-.9zm-1.2-.8c-1 0-1.6-.8-1.5-1.7s1-1.7 2-1.7 1.6.8 1.5 1.7-1 1.7-2 1.7zm7.3-5h-1.5c-.3.0-.4.2-.3.5l1.8 5.4-1.8 2.6c-.2.2.0.4.2.4h1.7c.3.0.4-.1.5-.2l5.6-8.1c.2-.3.1-.5-.2-.5h-1.6c-.3.0-.4.1-.5.3l-2.4 3.4-1-3.4c0-.3-.2-.4-.5-.4z" style="fill:#03428e;fill-rule:nonzero;"></path><path d="M251 11.3c1.5.0 2.9.8 2.7 2.8-.2 2.4-1.5 3.7-3.5 3.7h-1.8c-.3.0-.4.2-.4.6l-.3 2.2c-.1.3-.2.5-.5.5h-1.6c-.3.0-.4-.2-.3-.5l1.4-8.7c.1-.4.2-.6.5-.6h3.8zm-2.7 4.6h1.3c.8.0 1.4-.6 1.4-1.6.0-.6-.4-1.1-1.1-1.1h-1.3l-.3 2.7zm9.8 4.5c.2-.1.3-.2.3.0l-.1.4c0 .2.1.3.3.3h1.5c.2.0.4-.1.4-.5l.9-5.6c0-.3.0-.4-.2-.4h-1.6c-.1.0-.2.1-.3.3l-.1.4c0 .2-.1.2-.2.0-.3-.6-1-.9-1.9-.9-2.3.1-3.8 1.7-3.9 3.9-.1 1.7 1.1 3 2.7 3 1.1.0 1.7-.3 2.2-.9zm-1.2-.8c-1 0-1.6-.8-1.5-1.7s1-1.7 2-1.7 1.6.8 1.5 1.7-1 1.7-2 1.7zm6.7 1.5H262c-.1.0-.2-.1-.2-.2l1.5-9.4c0-.1.2-.2.3-.2h1.7c.1.0.2.1.2.2l-1.5 9.4c-.1.1-.2.2-.4.2z" style="fill:#00aeef;fill-rule:nonzero;"></path><path d="M203.8 7.8h4.4c1.2.0 2.7.0 3.7.9.7.6 1 1.5.9 2.5-.3 3.4-2.3 5.2-5 5.2h-2.2c-.4.0-.6.2-.7.9l-.6 3.9c0 .3-.2.4-.3.4h-2.7c-.3.0-.4-.2-.3-.7l2-12.4c0-.5.3-.7.8-.7" style="fill:#03428e;fill-rule:nonzero;"></path><path d="M205 17l.8-4.9c.1-.4.3-.6.8-.6h4.4c.7.0 1.3.1 1.8.3-.4 3-2.4 4.7-4.9 4.7h-2.2c-.3.0-.5.1-.7.5" style="fill:#0e3178;fill-rule:nonzero;"></path></g><g id="icon-visa"><path d="M120.3 24.1l2.9-16.8h4.5l-2.8 16.8h-4.6zm21.2-16.4c-.9-.3-2.3-.7-4.1-.7-4.5.0-7.7 2.3-7.7 5.5.0 2.4 2.3 3.8 4 4.6 1.8.8 2.4 1.3 2.4 2.1.0 1.1-1.4 1.6-2.7 1.6-1.8.0-2.8-.3-4.3-.9l-.6-.3-.6 3.8c1.1.5 3 .9 5.1.9 4.8.0 7.9-2.2 8-5.7.0-1.9-1.2-3.4-3.8-4.6-1.6-.8-2.6-1.3-2.6-2.1.0-.7.8-1.4 2.6-1.4 1.5.0 2.6.3 3.4.6l.4.2.5-3.6zm11.7-.4h-3.5c-1.1.0-1.9.3-2.4 1.4l-6.8 15.4h4.8s.8-2.1 1-2.5h5.9c.1.6.6 2.5.6 2.5h4.2l-3.8-16.8zm-5.7 10.8c.4-1 1.8-4.7 1.8-4.7s.4-1 .6-1.6l.3 1.4s.9 4 1.1 4.8h-3.8v.1zm-31-10.8-4.5 11.4-.5-2.3c-.8-2.7-3.4-5.6-6.3-7l4.1 14.7h4.8l7.2-16.7h-4.8v-.1z" style="fill:#0058a0;fill-rule:nonzero;"></path><path d="M107.9 7.3h-7.4l-.1.4c5.7 1.4 9.5 4.7 11.1 8.8l-1.6-7.7c-.2-1.1-1-1.5-2-1.5z" style="fill:#faa61a;fill-rule:nonzero;"></path></g><g id="icon-mastercard"><rect x="0" y="0" width="44.04" height="36.123" style="fill:none;"></rect><path d="M10.905 31.578v-1.8c.002-.025.003-.049.003-.074.0-.586-.483-1.068-1.068-1.068-.021.0-.042.001-.063.002-.403-.026-.79.169-1.008.51-.198-.33-.563-.527-.948-.51-.335-.017-.656.145-.84.426v-.354h-.624v2.868h.63V30c-.004-.03-.006-.061-.006-.091.0-.369.303-.672.672-.672.012.0.024.0.036.001.414.0.624.27.624.756v1.596h.63V30c-.004-.029-.006-.058-.006-.088.0-.37.305-.675.675-.675.011.0.022.0.033.001.426.0.63.27.63.756v1.596l.63-.012zm9.321-2.868H19.2v-.87h-.63v.87H18v.57h.582v1.32c0 .666.258 1.062.996 1.062.276.001.546-.076.78-.222l-.18-.534c-.167.1-.357.156-.552.162-.3.0-.414-.192-.414-.48V29.28h1.02l-.006-.57zm5.322-.072c-.309-.009-.6.152-.756.42v-.348h-.618v2.868h.624V29.97c0-.474.204-.738.6-.738.133-.002.266.023.39.072l.192-.6c-.143-.051-.293-.077-.444-.078l.012.012zm-8.046.3c-.353-.21-.759-.314-1.17-.3-.726.0-1.2.348-1.2.918.0.468.348.756.99.846l.3.042c.342.048.504.138.504.3.0.222-.228.348-.654.348-.343.01-.679-.096-.954-.3l-.3.486c.363.254.799.384 1.242.372.828.0 1.308-.39 1.308-.936s-.378-.768-1.002-.858l-.3-.042c-.27-.036-.486-.09-.486-.282s.204-.336.546-.336c.316.004.626.088.9.246l.276-.504zm16.713-.3c-.309-.009-.6.152-.756.42v-.348h-.618v2.868h.624V29.97c0-.474.204-.738.6-.738.133-.002.266.023.39.072l.192-.6c-.143-.051-.293-.077-.444-.078l.012.012zm-8.04 1.5c-.001.018-.001.036-.001.053.0.795.654 1.449 1.449 1.449.027.0.055.0.082-.002.375.019.743-.103 1.032-.342l-.3-.504c-.216.164-.479.255-.75.258-.476-.038-.847-.441-.847-.918s.371-.88.847-.918c.271.003.534.094.75.258l.3-.504c-.289-.239-.657-.361-1.032-.342-.027-.002-.055-.002-.082-.002-.795.0-1.449.654-1.449 1.449.0.017.0.035.001.053v.012zm5.844.0V28.71h-.624v.348c-.215-.276-.55-.433-.9-.42-.823.0-1.5.677-1.5 1.5s.677 1.5 1.5 1.5c.35.013.685-.144.9-.42v.348h.624v-1.428zm-2.322.0c.027-.456.409-.816.865-.816.476.0.867.391.867.867.0.474-.388.865-.862.867-.004.0-.007.0-.011.0-.472.0-.861-.389-.861-.861.0-.019.001-.038.002-.057zm-7.53-1.5c-.815.011-1.479.685-1.479 1.5.0.823.677 1.5 1.5 1.5.007.0.014.0.021.0.431.022.856-.117 1.191-.39l-.3-.462c-.237.19-.53.296-.834.3-.426.037-.81-.277-.858-.702h2.13v-.24c0-.9-.558-1.5-1.362-1.5l-.009-.006zm0 .558c.005.0.01.0.015.0.385.0.703.312.711.696h-1.5c.022-.398.364-.71.762-.696h.012zm15.633.948v-2.586h-.6v1.5c-.215-.276-.55-.433-.9-.42-.823.0-1.5.677-1.5 1.5s.677 1.5 1.5 1.5c.35.013.685-.144.9-.42v.348h.6v-1.422zm1.041 1.017c.039.0.078.007.114.021.034.014.066.034.093.06.026.026.048.056.063.09.031.071.031.151.0.222-.015.034-.037.064-.063.09-.027.026-.059.046-.093.06-.036.016-.075.024-.114.024-.116-.001-.221-.069-.27-.174-.03-.071-.03-.151.0-.222.015-.034.037-.064.063-.09.027-.026.059-.046.093-.06.039-.016.081-.023.123-.021h-.009zm0 .507c.03.0.06-.006.087-.018.026-.012.049-.028.069-.048.077-.084.077-.216.0-.3-.02-.02-.043-.037-.069-.048-.027-.012-.057-.018-.087-.018s-.059.006-.087.018c-.027.011-.051.027-.072.048-.077.084-.077.216.0.3.021.021.045.037.072.048.03.013.063.019.096.018h-.009zm.018-.357c.028-.001.056.007.078.024.019.015.029.039.027.063.001.02-.007.04-.021.054-.017.016-.04.025-.063.027l.087.099h-.069l-.081-.099h-.027v.099h-.057v-.264l.126-.003zm-.066.051v.072h.066c.012.004.024.004.036.0.004-.008.004-.019.0-.027.004-.008.004-.019.0-.027-.012-.004-.024-.004-.036.0l-.066-.018zm-3.3-1.218c.027-.456.409-.816.865-.816.476.0.867.391.867.867.0.474-.388.865-.862.867-.004.0-.007.0-.011.0-.472.0-.861-.389-.861-.861.0-.019.001-.038.002-.057zm-21.069.0V28.71H13.8v.348c-.215-.276-.55-.433-.9-.42-.823.0-1.5.677-1.5 1.5s.677 1.5 1.5 1.5c.35.013.685-.144.9-.42v.348h.624v-1.422zm-2.322.0c.027-.456.409-.816.865-.816.476.0.867.391.867.867.0.474-.388.865-.862.867-.006.0-.011.0-.017.0-.472.0-.861-.389-.861-.861.0-.019.001-.038.002-.057h.006z" style="fill:#231f20;fill-rule:nonzero;"></path><rect x="17.295" y="6.855" width="9.45" height="16.983" style="fill:#ff5f00;fill-rule:nonzero;"></rect><path d="M17.895 15.348c-.004-3.312 1.519-6.448 4.125-8.493-1.903-1.495-4.254-2.308-6.673-2.308-5.925.0-10.8 4.875-10.8 10.8.0 5.924 4.875 10.799 10.8 10.799 2.419.0 4.77-.813 6.673-2.308-2.605-2.044-4.128-5.179-4.125-8.49z" style="fill:#eb001b;fill-rule:nonzero;"></path><path d="M39.495 15.348c0 5.925-4.875 10.8-10.8 10.8-2.421.0-4.772-.814-6.675-2.31 2.604-2.046 4.127-5.18 4.127-8.492.0-3.311-1.523-6.445-4.127-8.491 1.903-1.496 4.254-2.31 6.675-2.31 5.925.0 10.8 4.875 10.8 10.8v.003zm-1.032 6.69v-.348h.141v-.072h-.357v.072h.153v.348h.063zm.693.0v-.42h-.108l-.126.3-.126-.3H38.7v.42h.078v-.315l.117.273h.081l.117-.273v.318l.063-.003z" style="fill:#f79e1b;fill-rule:nonzero;"></path></g></svg>