<svg xmlns="http://www.w3.org/2000/svg" xmlns:xlink="http://www.w3.org/1999/xlink" xmlns:serif="http://www.serif.com/" viewBox="0 0 120 22" style="fill-rule:evenodd;clip-rule:evenodd;stroke-linejoin:round;stroke-miterlimit:2;"><g><path d="M4.872 22H.294v-21.916h4.578v8.914l8.365-8.914h5.925l-8.943 8.973L19.677 22h-5.888l-6.778-9.616-2.139 2.201V22zm114.548.0h-16.551v-21.916h16.399v3.922h-12.079v4.982h10.705v3.924h-10.705v5.165h12.231V22zm-31.572.0h-4.321v-21.916h8.702c5.101.0 8.398 2.912 8.398 7.42v.061c0 4.6-3.464 7.573-8.825 7.573h-3.954V22zM54.34 22h-4.351V3.961h-6.771v-3.877h17.893v3.877H54.34V22zm-22.519.0h-4.578V3.961h-8.48l3.912-3.877h15.77v3.877h-6.624V22zm49.754.0h-4.556l-2.15-5.118h-9.653L63.037 22h-4.435l9.576-21.916h3.821L81.575 22zm-14.753-8.985h6.443l-3.236-7.483-3.207 7.483zm21.026-1.83h4.077c2.624.0 4.32-1.385 4.32-3.529v-.06c0-2.243-1.575-3.529-4.32-3.529h-4.077v7.118z" style="fill-rule:nonzero;"/></g></svg>