<svg xmlns="http://www.w3.org/2000/svg" xmlns:xlink="http://www.w3.org/1999/xlink" xmlns:serif="http://www.serif.com/" viewBox="0 0 206 22" style="fill-rule:evenodd;clip-rule:evenodd;stroke-linejoin:round;stroke-miterlimit:2;"><path d="M53.941 10.926s-5.505-5.568-7.377-7.463c-1.875-1.897-1.328-1.897-1.328-1.897L34.748 1.25s.082 2.692-2.75 6.075c-.002.002-.004.004-.006.006-2.038 2.248-4.732 4.491-4.732 4.491s-2.693-2.243-4.732-4.491c-.002-.002-.004-.004-.005-.006-2.832-3.383-2.752-6.075-2.752-6.075l-10.487.316s.547.0-1.327 1.897c-1.874 1.895-7.377 7.463-7.377 7.463s8.351 8.208 8.489 8.341c.142.139-.512.637-.512.637l13.075.357s-3.419-1.021-5.501-2.909c-2.557-2.321-5.777-5.978-5.777-6.381.0-1.201 4.703-4.536 4.724-4.552-.012.015-.522.648 2.19 3.928 2.743 3.317 9.992 10.403 9.992 10.403l9.992-10.403c2.712-3.28 2.202-3.913 2.19-3.928.021.016 4.724 3.351 4.724 4.552.0.403-3.22 4.06-5.777 6.381-2.081 1.888-5.501 2.909-5.501 2.909l13.075-.357s-.654-.498-.512-.637c.138-.133 8.49-8.341 8.49-8.341zM64.752 6.1v9.837c.797-.038 1.595-.075 2.393-.112V8.579c2.599.06 5.199.117 7.799.17v6.742c.836-.034 1.672-.067 2.509-.099V8.799c2.008.04 4.017.076 6.025.112.513.393 1.027.781 1.54 1.164v5.044c.799-.027 1.597-.052 2.395-.078V9.518c-1.037-.852-2.073-1.727-3.11-2.624-6.519-.222-13.035-.487-19.551-.794zm137.207.144c-5.482.247-10.964.464-16.449.65v8.249c5.485.187 10.967.403 16.449.65 1.036-.956 2.211-1.942 3.247-2.958V9.201c-1.036-1.016-2.211-2-3.247-2.957zm-22.976 8.691c.797.025 1.596.048 2.394.074V7.028c-.798.025-1.597.049-2.394.073v7.834zM90.886 9.571v2.894c1.037.811 2.075 1.605 3.111 2.38 5.484-.15 10.97-.271 16.456-.361v-1.698c-5.211.044-10.421.101-15.631.173-.611-.41-1.221-.835-1.831-1.256v-1.366c.61-.418 1.22-.841 1.831-1.249 5.21.071 10.42.129 15.631.172V7.553c-5.486-.09-10.972-.211-16.456-.361-1.036.775-2.074 1.567-3.111 2.379zm74.171 3.435c-2.557-1.882-5.115-3.679-7.672-5.422-1.114.017-2.227.033-3.341.047 3.256 2.216 6.51 4.506 9.765 6.933.856.017 1.712.034 2.567.051 3.303-2.328 6.606-4.785 9.909-7.436-1.185.032-2.371.064-3.556.094-2.558 2.008-5.114 3.909-7.672 5.733zm-20.05-5.287c-3.303 2.222-6.606 4.388-9.911 6.565 1.187.0 2.372.0 3.558.003.635-.418 1.268-.839 1.903-1.26 3.84.009 7.682.027 11.522.054.64.441 1.28.876 1.92 1.325 1.114.014 2.228.029 3.341.046-3.254-2.338-6.51-4.567-9.766-6.752-.855.007-1.711.013-2.567.019zm-30.535-.105v6.809c5.486-.074 10.972-.12 16.458-.136 1.037-.688 2.075-1.376 3.112-2.062V9.812c-1.037-.687-2.075-1.374-3.112-2.064-5.486-.014-10.972-.06-16.458-.134zm86.662 5.822c-4.481-.103-8.962-.194-13.445-.275V8.887c4.483-.08 8.964-.171 13.445-.273.611.506 1.221 1.022 1.831 1.545v1.723c-.61.525-1.22 1.045-1.831 1.554zm-71.03-.748c-4.483.007-8.968.024-13.453.053V9.305c4.485.027 8.97.046 13.453.053.612.359 1.221.717 1.832 1.074v1.175c-.611.36-1.22.72-1.832 1.081zm12.369-.931c1.285-.854 2.569-1.713 3.854-2.581 1.284.857 2.569 1.721 3.853 2.595-2.569-.007-5.138-.011-7.707-.014z" style="fill-rule:nonzero;"/></svg>