<svg xmlns="http://www.w3.org/2000/svg" xmlns:xlink="http://www.w3.org/1999/xlink" xmlns:serif="http://www.serif.com/" viewBox="0 0 184 22" style="fill-rule:evenodd;clip-rule:evenodd;stroke-linejoin:round;stroke-miterlimit:2;"><g><path d="M.235.0h10.452l12.67 15.987h.064V0h6.729v22H19.704L7.034 6.022h-.051V22H.235V0zm61.377.0h25.697v5.474h-9.475V22h-6.738V5.474h-9.484V0zm28.647.0h6.744v7.84h14.224V0h6.744v22h-6.744v-8.324H97.003V22h-6.744V0zm40.882.0h8.772l12.093 22h-7.499l-2.102-3.882h-13.663L126.766 22h-7.537l11.912-22zm22.125.0h10.461l12.658 15.987h.07V0h6.739v22h-10.449l-12.67-15.978h-.058V22h-6.751V0zM43.325.0h8.785l12.093 22h-7.505l-2.086-3.882H40.93L38.96 22h-7.537L43.325.0zm87.938 13.373h8.621l-4.378-8.266-4.243 8.266zm-87.802.0h8.62l-4.375-8.266-4.245 8.266z" style="fill-rule:nonzero;"/></g></svg>