<svg xmlns="http://www.w3.org/2000/svg" xmlns:xlink="http://www.w3.org/1999/xlink" xmlns:serif="http://www.serif.com/" viewBox="0 0 127 22" style="fill-rule:evenodd;clip-rule:evenodd;stroke-linejoin:round;stroke-miterlimit:2;"><rect id="Artboard1" x="0" y="0" width="126.799" height="22" style="fill:none;"/><g id="Artboard11" serif:id="Artboard1"><path d="M31.82 1.581l18.353 6.44c2.816.989 2.816 4.971.0 5.959L31.83 20.418c-3.237 1.135-6.763 1.135-10 0L3.465 13.973c-2.808-.986-2.808-4.959.0-5.944L21.84 1.581c3.23-1.134 6.75-1.134 9.98.0zm72.326 14.738H99.21c-.151.0-.274.123-.274.274v4.255c0 .152.123.275.274.275h4.936c.151.0.274-.123.274-.275v-4.255c0-.151-.123-.274-.274-.274zm-21.152.0h-4.936c-.151.0-.274.123-.274.274v4.256c0 .151.123.274.274.274h4.936c.151.0.274-.123.274-.274v-4.256c0-.151-.123-.274-.274-.274zm-7.467.001H71.07c-.146.0-.265.118-.265.263v.761c0 .146.12.264.266.264h.072c.051.0.093.041.093.093v2.037c0 .052-.042.093-.093.093h-.073c-.146.0-.265.119-.265.265v.76c0 .146.119.265.265.265h4.378c.465.0.843-.378.843-.844v-3.193c0-.422-.342-.764-.764-.764zm21.53-.001h-4.938c-.15.0-.273.123-.273.274v.742c0 .151.123.274.273.274h1.653c.052.0.096.042.096.096v3.141c0 .151.123.274.274.274h.893c.15.0.273-.123.273-.274v-3.141c0-.054.043-.096.097-.096h1.652c.151.0.274-.123.274-.274v-.742c0-.151-.123-.274-.274-.274zm-6.973.0h-4.938c-.151.0-.274.123-.274.274v4.253c0 .151.123.274.274.274h4.938c.151.0.274-.123.274-.274v-.741c0-.151-.123-.274-.274-.274h-3.676c-.054.0-.097-.043-.097-.096v-2.03c0-.054.043-.096.097-.096h3.676c.151.0.274-.123.274-.274v-.742c0-.151-.123-.274-.274-.274zm20.563 3.912c.414.0.75-.335.75-.75v-2.396c0-.423-.343-.766-.765-.766h-4.428c-.15.0-.273.122-.273.273v4.255c0 .151.123.273.273.273h.895c.15.0.273-.122.273-.273v-.614l1.254-.001c.083.0.161.037.213.103l.544.682c.053.065.13.103.214.103h1.375c.078.0.121-.089.073-.15l-.47-.589c-.048-.061-.005-.15.072-.15zm-10.273-.511v-2.002c0-.061.05-.111.111-.111h2.386c.061.0.111.05.111.111v2.002c0 .061-.05.111-.111.111h-2.386c-.061.0-.111-.05-.111-.111zm-21.152.009v-2.02c0-.057.046-.102.102-.102h2.404c.056.0.101.045.101.102v2.02c0 .056-.045.102-.101.102h-2.404c-.056.0-.102-.046-.102-.102zm-4.37-1.976v1.934c0 .08-.064.144-.144.144h-1.94c-.051.0-.093-.041-.093-.093v-2.037c0-.051.042-.092.093-.092h1.94c.08.0.144.064.144.144zm34.837 1.153h-2.216c-.051.0-.092-.04-.092-.091l-.008-1.121c0-.051.041-.092.092-.092h2.226c.151.0.273.122.273.272v.758c0 .151-.123.274-.275.274zm4.112-2.183c-.01-.025-.018-.023-.019.003l-.01.353c0 .026-.023.048-.049.048h-.08c-.026.0-.047-.022-.046-.048l.03-.712c.001-.026.024-.048.05-.048h.086c.026.0.056.02.065.045l.16.424c.01.025.025.025.034.0l.16-.424c.01-.025.039-.045.065-.045h.086c.026.0.049.022.05.048l.03.712c.001.026-.02.048-.046.048h-.08c-.026.0-.049-.022-.049-.048l-.009-.353c-.001-.026-.01-.028-.02-.003l-.104.255c-.01.024-.04.044-.066.044h-.067c-.026.0-.056-.02-.066-.044l-.105-.255zm-.456-.243c-.027.0-.048.022-.048.048v.551c0 .026-.022.048-.048.048h-.086c-.027.0-.048-.022-.048-.048v-.551c0-.026-.022-.048-.048-.048h-.121c-.027.0-.048-.021-.048-.048v-.065c0-.026.021-.048.048-.048h.519c.027.0.049.022.049.048v.065c0 .027-.022.048-.049.048h-.12zm-67.712-5.699H34.356c-.153.0-.278-.124-.278-.278V6.432c0-.182-.17-.314-.345-.271L21.652 9.162c-.176.044-.346-.089-.346-.27V6.467c0-.191-.189-.326-.37-.262l-13.006 4.537c-.261.091-.196.476.08.476h11.284c.154.0.279.125.279.279v4.071c0 .181.169.314.345.27l12.081-3.001c.175-.043.345.09.345.271v2.425c0 .191.19.325.37.262l13-4.535c.261-.091.196-.479-.081-.479zm23.592-4.527V4.479c0-.151-.122-.273-.272-.273H57.4c-.352.0-.638.285-.638.638v5.268c0 .351.285.637.637.637l8.951.004c.051.0.093.042.093.093v1.774c0 .051-.042.093-.093.093h-9.315c-.151.0-.273.122-.273.272v1.78c0 .15.122.272.273.272h11.552c.353.0.638-.286.638-.637V9.071c0-.352-.285-.638-.638-.638h-8.949c-.05.0-.093-.042-.093-.092V6.62c0-.052.043-.094.093-.094h9.315c.15.0.272-.121.272-.272zm46.627 5.189 6.098-7.14c.052-.062.127-.097.207-.097h3.14c.122.0.188.145.108.237l-4.333 5c-.089.103-.089.255.0.357l4.333 5.001c.08.092.014.236-.108.236h-3.144c-.078.0-.151-.033-.203-.09l-2.61-2.907c-.112-.124-.308-.12-.413.009l-2.369 2.889c-.052.063-.129.099-.211.099h-3.177c-.151.0-.273-.121-.273-.272V4.479c0-.151.122-.273.273-.273h2.236c.15.0.272.122.272.273v6.9c0 .092.114.134.174.064zm-30.685 3.594H97.08c.151.0.273-.122.273-.272V4.479c0-.151-.122-.272-.273-.272H85.167c-.151.0-.272.121-.272.272v10.286c0 .15.121.272.272.272zm14.064.0h11.916c.15.0.272-.122.272-.272v-1.781c0-.15-.122-.271-.272-.271h-9.312c-.052.0-.094-.042-.094-.094V6.621c0-.052.042-.094.094-.094h9.312c.15.0.272-.122.272-.273V4.479c0-.151-.122-.272-.272-.272H99.234c-.152.0-.275.123-.275.276v10.282c0 .15.121.272.272.272zM80.4 8.433h-6.685c-.058.0-.107-.048-.107-.106V4.479c0-.151-.122-.273-.271-.273H71.1c-.151.0-.272.122-.272.273v10.286c0 .15.121.272.272.272h2.237c.149.0.271-.122.271-.272v-3.908c0-.059.049-.106.107-.106H80.4c.059.0.107.047.107.106v3.908c0 .15.121.272.272.272h2.239c.15.0.272-.122.272-.272V4.479c0-.151-.122-.273-.272-.273h-2.239c-.151.0-.272.122-.272.273v3.848c0 .058-.048.106-.107.106zm7.275 4.186V6.621c0-.052.042-.094.094-.094h6.709c.052.0.094.042.094.094v5.998c0 .052-.042.094-.094.094h-6.709c-.052.0-.094-.042-.094-.094z" style="fill-rule:nonzero;"/></g></svg>