<svg xmlns="http://www.w3.org/2000/svg" width="185" height="67" viewBox="0 0 185 67" fill="none"><path d="M182.708 64.5314H183.042C183.264 64.5314 183.461 64.5003 183.461 64.2292 183.461 63.9858 183.242 63.9481 183.047 63.9481H182.708V64.5314zM182.329 63.6603H183.089C183.577 63.6603 183.84 63.8269 183.84 64.2575 183.84 64.6086 183.643 64.7781 183.305 64.8053L183.855 65.7003H183.466L182.939 64.8203H182.708V65.7003H182.329v-2.04zm2.053 1.0239C184.382 63.8431 183.775 63.2319 183.024 63.2319 182.267 63.2319 181.659 63.8431 181.659 64.6842 181.659 65.5325 182.267 66.1403 183.024 66.1403 183.775 66.1403 184.382 65.5325 184.382 64.6842zm-3.161.0C181.221 63.6942 182.025 62.8831 183.024 62.8831 184.015 62.8831 184.826 63.6942 184.826 64.6842 184.826 65.6808 184.015 66.4914 183.024 66.4914 182.025 66.4914 181.221 65.6808 181.221 64.6842z" fill="#000"/><path d="M175.59 35.0288C175.59 32.0527 172.836 28.706 168.414 30.0532 163.148 31.656 161.824 39.8477 162.001 45.7782 162.194 52.3071 164.386 59.5038 167.961 59.9838 170.362 60.2921 171.786 58.7982 171.802 57.5282L171.786 47.7166C171.786 46.3382 170.772 45.0349 169.142 44.961V41.0816L179.763 41.0832 179.749 66.0788 170.501 64.5432C161.099 63.5921 155.864 57.0582 154.441 48.5527 152.374 36.2605 158.928 27.1193 169.951 25.606 169.951 25.606 177.251 24.4432 179.628 24.0632L179.631 34.9982 175.59 35.0288z" fill="#000"/><path d="M40.7222 29.459C43.9167 30.0029 48.68 33.5312 48.6128 39.6457 48.515 48.3723 42.2845 50.6662 38.4006 50.6429L31.9306 50.6123 31.9634 56.2656C31.9634 56.8734 32.4922 57.8606 34.4217 58.3179L34.4372 61.4845C30.3922 61.9606 26.5922 62.3951 22.4745 62.9618L22.4839 59.3262C24.5145 59.0529 24.875 57.4751 24.875 56.914V40.2968C24.8639 39.5095 23.9789 38.894 22.515 38.7734L22.5228 34.919l9.4217 1.3483V46.4912L37.3856 46.5229C40.1456 46.4484 41.9017 43.514 41.945 40.5823 42.015 36.0918 39.43 33.9873 36.4706 33.5168L10.7834 30.4557C10.3828 30.4112 9.72058 30.5095 9.25447 30.9268 8.53447 31.5723 8.57225 32.8729 8.92225 33.4134c0 0 6.32665 12.5723 9.34055 18.345C19.8622 54.7662 20.27 58.7457 18.0695 61.4095 15.38 64.6645 10.7228 64.1718.101693 66.0762c-.0144446.0.0-10.1761.0-10.1761L3.94225 55.9256C3.91169 57.3929 4.76947 59.6562 6.64225 60.5045 7.87614 61.0618 9.78836 60.8795 10.7095 59.9734 13.1617 57.5645 10.7228 54.8273 8.47114 50.3901L.751693 34.7562C.483915 34.1834-1.10831 30.4557 1.36114 27.5768c2.07166-2.4028 4.87222-2.4834 6.495-2.2611L40.7222 29.459z" fill="#000"/><path d="M154.082 30.9188C152.09 31.1638 151.469 32.6188 151.469 33.9027V62.0066L143.33 61.0699C140.348 54.3699 134.811 40.7677 134.811 40.7677L134.822 53.5694C134.822 55.6599 135.616 56.7838 137.079 57.1383v3.3005C130.194 59.7916 123.069 59.2271 115.955 58.8077L115.991 55.6699C117.725 55.5749 118.601 54.2683 118.601 52.3966L118.62 36.4144C118.62 35.5194 117.621 34.3494 116.009 34.471L115.969 31.3116 125.162 30.6583 125.16 52.5827C125.122 53.6333 125.496 55.5188 127.815 55.6971 129.163 55.8121 130.383 54.8944 130.383 53.7416L130.36 35.7371C130.36 34.631 129.409 33.6849 127.916 33.6488L127.945 30.4349 137.835 29.5344 146.986 50.5088 146.975 34.5171C146.975 33.351 146.054 32.0833 144.359 32.0527L144.393 28.8849S151.756 27.9916 154.082 27.7566v3.1622z" fill="#000"/><path fill-rule="evenodd" clip-rule="evenodd" d="M108.093 45.7567C108.093 50.895 105.788 54.2056 102.999 54.1861L99.0128 54.1906V36.08L102.391 36.0767C105.794 35.965 108.093 40.0678 108.093 45.7567zm7.003-1.5311C115.517 53.8123 109.261 58.1067 104.114 58.0817L92.1617 58.0061 92.1584 39.5345c0-2.4-.721100000000007-3.9439-2.5545-3.8834L89.5612 32.1228 104.567 32.1828C109.937 32.2156 114.764 36.6984 115.096 44.2256z" fill="#000"/><path fill-rule="evenodd" clip-rule="evenodd" d="M60.4553 48.2718 54.3914 48.2196l3.1355-8.6494 2.9284 8.7016zm8.9633 4.9945c.25.746099999999998 1.0489 1.3111 1.86 1.1939C72.6314 54.2696 73.043 53.3813 73.0142 52.2635L73.0053 37.0113C72.9997 35.6657 71.463 35.0029 70.4397 35.0285L70.4769 31.5835 79.9847 31.9607 79.9908 54.1552C80.8969 54.1229 82.963 54.2218 82.963 54.2218 84.8597 54.0935 85.9858 52.4946 86.0041 50.0946L89.9041 50.1157c0 2.7511.00669999999999504 5.1295.0 7.8845C84.583 57.919 65.9036 58.6379 60.3519 59.1496L60.3614 55.559C61.8458 55.6013 62.4225 54.9807 62.1547 54.1552L61.783 52.359 52.8475 52.354 52.1536 53.9924C51.5614 55.6402 53.1047 56.4307 54.0258 56.3096V59.5924L43.4991 60.5574 43.5414 56.7096C45.0958 56.5079 46.5225 55.199 47.0458 53.7279l6.2911-17.3016C54.0258 35.1052 53.2125 34.0918 51.6591 33.9374L51.6947 30.3718 61.578 31.0985l7.8406 22.1678z" fill="#000"/><path d="M94.1564 7.72171S94.8509 4.09949 94.8426 4.09949c-4.0317.70222-5.7317.61166-6.9323 1.81555C86.927 6.89949 86.8159 8.36615 87.2053 9.47949 87.5992 10.6073 89.2842 15.7356 89.3531 15.9395 89.4953 16.5528 89.4348 17.0567 88.8776 17.5273 88.4753 17.8606 87.7576 17.9273 87.3448 17.7245 86.7048 17.4084 86.552 16.6445 86.662 16.1017L85.2587 16.3084S84.552 19.8728 84.5631 19.8684C88.5915 19.1684 90.2898 19.2573 91.4926 18.0562 92.4731 17.07 92.5876 15.6006 92.1915 14.4928 91.7981 13.3628 90.3859 8.88449 90.1892 8.2056 89.9965 7.52893 89.8509 7.00504 90.5237 6.4456 90.9242 6.1106 91.6403 6.04171 92.0564 6.24949 92.692 6.56115 92.8609 7.39615 92.7503 7.93893L94.1564 7.72171z" fill="#000"/><path d="M76.4031 8.28312C76.3975 8.29757 76.3975 8.30868 76.4031 8.32423 76.4136 8.33423 76.4292 8.33812 76.4425 8.33423c14.9323-9.41555 25.9885-6.09277 26.1765-.35889C102.749 12.2226 100.11 15.9159 93.8664 19.0348 93.8553 19.0442 93.8464 19.0626 93.8553 19.0792 93.8592 19.0931 93.8759 19.102 93.8909 19.0998 102.731 16.1098 106.685 11.9542 106.676 7.32701 106.664-2.31854 87.6653-2.88299 76.4031 8.28312z" fill="#000"/><path d="M103.281 15.6704C103.27 15.6566 103.25 15.6538 103.238 15.6577 88.288 25.1977 77.2119 21.8504 77.0252 16.1182 76.8885 11.8666 79.5908 8.15877 85.8358 5.03322 85.8263 5.03766 85.8235 5.03877 85.8246 5.03877 85.8446 5.03322 85.853 5.01377 85.8469 4.99488 85.8391 4.97988 85.8235 4.97155 85.8058 4.97655 76.9691 7.96766 72.9602 12.1382 72.9663 16.7682 72.9752 26.4093 92.153 26.8327 103.281 15.7093 103.287 15.6966 103.287 15.6827 103.281 15.6704z" fill="#000"/></svg>